{"title":"Rio 2 2014 HDTS x264 AC3-MiLLENiUM","uid":10045483,"size":1231738119,"categoryP":"video","categoryS":"movies","magnet":"?xt=urn:btih:19d28f4b35a26f6d9e2ea34626b572287e2e2020&amp;dn=Rio+2+2014+HDTS+x264+AC3-MiLLENiUM&amp;tr=udp%3A%2F%2Ftracker.openbittorrent.com%3A80&amp;tr=udp%3A%2F%2Fopen.demonii.com%3A1337&amp;tr=udp%3A%2F%2Ftracker.coppersurfer.tk%3A6969&amp;tr=udp%3A%2F%2Fexodus.desync.com%3A6969","seeders":150,"leechers":25,"uploader":"xxxlavalxxx","files":-1,"time":1398523343,"description":" &lt;a href=&quot;http://www.imdb.com/title/tt2357291/&quot; rel=&quot;nofollow&quot; target=&quot;_NEW&quot;&gt;http://www.imdb.com/title/tt2357291/&lt;/a&gt;\n\n\nIt's a jungle out there for Blu, Jewel and their three kids after they're hurtled Rio de Janeiro to the wilds of the Amazon. As Blu tries to fit in, he goes beak-to-beak with the vengeful Nigel, and meets the most fearsome adversary of all: his father-in-law.\n\nDirector: Carlos Saldanha\nWriters: Don Rhymer (story), Carlos Saldanha (story)\nStars: Jesse Eisenberg, Anne Hathaway, Jemaine Clement\nGenres: Animation | Adventure | Comedy | Family\nCountry: USA\nLanguage: English | Portuguese\n\n\n\nRio 2 2014 HDTS x264 AC3-MiLLENiUM                  \n\nGeneral\n\nSource...............: NEW 720p Castellano/Echo [THANKS]\nIMDb Information.... : http://www.imdb.com/title/tt2357291/\nSample Included......: yes\n\nGeneral\nComplete name                            : Rio 2 2014 HDTS x264 AC3-MiLLENiUM.mkv\nFormat                                   : Matroska\nFormat version                           : Version 2\nFile size                                : 1.13 GiB\nDuration                                 : 1h 32mn\nOverall bit rate mode                    : Variable\nOverall bit rate                         : 1 747 Kbps\nEncoded date                             : UTC 2014-04-25 19:57:23\nWriting application                      : mkvmerge v6.9.1 ('Blue Panther') 32bit built on Apr 18 2014 18:15:44\nWriting library                          : libebml v1.3.0 + libmatroska v1.4.1\n\nVideo\nID                                       : 1\nFormat                                   : AVC\nFormat/Info                              : Advanced Video Codec\nFormat profile                           : &lt;a class=&quot;__cf_email__&quot; href=&quot;/cdn-cgi/l/email-protection&quot; data-cfemail=&quot;99d1f0fef1d9d5adb7a8&quot;&gt;[email&amp;#160;protected]&lt;/a&gt;&lt;script cf-hash='f9e31' type=&quot;text/javascript&quot;&gt;\n/* &lt;![CDATA[ */!function(){try{var t=&quot;currentScript&quot;in document?document.currentScript:function(){for(var t=document.getElementsByTagName(&quot;script&quot;),e=t.length;e--;)if(t[e].getAttribute(&quot;cf-hash&quot;))return t[e]}();if(t&amp;&amp;t.previousSibling){var e,r,n,i,c=t.previousSibling,a=c.getAttribute(&quot;data-cfemail&quot;);if(a){for(e=&quot;&quot;,r=parseInt(a.substr(0,2),16),n=2;a.length-n;n+=2)i=parseInt(a.substr(n,2),16)^r,e+=String.fromCharCode(i);e=document.createTextNode(e),c.parentNode.replaceChild(e,c)}}}catch(u){}}();/* ]]&gt; */&lt;/script&gt;\nFormat settings, CABAC                   : Yes\nFormat settings, ReFrames                : 3 frames\nCodec ID                                 : V_MPEG4/ISO/AVC\nDuration                                 : 1h 32mn\nBit rate mode                            : Variable\nBit rate                                 : 1 520 Kbps\nMaximum bit rate                         : 40.0 Mbps\nWidth                                    : 720 pixels\nHeight                                   : 304 pixels\nDisplay aspect ratio                     : 2.35:1\nFrame rate mode                          : Constant\nFrame rate                               : 25.000 fps\nColor space                              : YUV\nChroma subsampling                       : 4:2:0\nBit depth                                : 8 bits\nScan type                                : Progressive\nBits/(Pixel*Frame)                       : 0.278\nStream size                              : 1 005 MiB (87%)\n\nAudio\nID                                       : 2\nFormat                                   : AC-3\nFormat/Info                              : Audio Coding 3\nMode extension                           : CM (complete main)\nFormat settings, Endianness              : Big\nCodec ID                                 : A_AC3\nDuration                                 : 1h 32mn\nBit rate mode                            : Constant\nBit rate                                 : 192 Kbps\nChannel(s)                               : 2 channels\nChannel positions                        : Front: L R\nSampling rate                            : 44.1 KHz\nBit depth                                : 16 bits\nCompression mode                         : Lossy\nStream size                              : 127 MiB (11%)\nLanguage                                 : English\nDefault                                  : Yes\nForced                                   : No\n\n\n\nscreens\n &lt;a href=&quot;\nhttp://i.imgur.com/ypjXoG6.png&quot; rel=&quot;nofollow&quot; target=&quot;_NEW&quot;&gt;\nhttp://i.imgur.com/ypjXoG6.png&lt;/a&gt; &lt;a href=&quot;\nhttp://i.imgur.com/4qkdK2N.png&quot; rel=&quot;nofollow&quot; target=&quot;_NEW&quot;&gt;\nhttp://i.imgur.com/4qkdK2N.png&lt;/a&gt; &lt;a href=&quot;\nhttp://i.imgur.com/yBjWDLc.png&quot; rel=&quot;nofollow&quot; target=&quot;_NEW&quot;&gt;\nhttp://i.imgur.com/yBjWDLc.png&lt;/a&gt; &lt;a href=&quot;\nhttp://i.imgur.com/JoXjtRb.png&quot; rel=&quot;nofollow&quot; target=&quot;_NEW&quot;&gt;\nhttp://i.imgur.com/JoXjtRb.png&lt;/a&gt; &lt;a href=&quot;\nhttp://i.imgur.com/s9r7aWb.png&quot; rel=&quot;nofollow&quot; target=&quot;_NEW&quot;&gt;\nhttp://i.imgur.com/s9r7aWb.png&lt;/a&gt; &lt;a href=&quot;\nhttp://i.imgur.com/fEsUMOH.png&quot; rel=&quot;nofollow&quot; target=&quot;_NEW&quot;&gt;\nhttp://i.imgur.com/fEsUMOH.png&lt;/a&gt; &lt;a href=&quot;\nhttp://i.imgur.com/8bhc9gs.png&quot; rel=&quot;nofollow&quot; target=&quot;_NEW&quot;&gt;\nhttp://i.imgur.com/8bhc9gs.png&lt;/a&gt;","torrent":{"xt":"urn:btih:19d28f4b35a26f6d9e2ea34626b572287e2e2020","amp;dn":"Rio+2+2014+HDTS+x264+AC3-MiLLENiUM","amp;tr":["udp%3A%2F%2Ftracker.openbittorrent.com%3A80","udp%3A%2F%2Fopen.demonii.com%3A1337","udp%3A%2F%2Ftracker.coppersurfer.tk%3A6969","udp%3A%2F%2Fexodus.desync.com%3A6969"],"infoHash":"19d28f4b35a26f6d9e2ea34626b572287e2e2020","infoHashBuffer":{"type":"Buffer","data":[25,210,143,75,53,162,111,109,158,46,163,70,38,181,114,40,126,46,32,32]},"announce":[],"urlList":[]}}